<svg width="16" height="16" viewBox="0 0 16 16" fill="none" xmlns="http://www.w3.org/2000/svg">
<rect width="16" height="16" rx="2" fill="#35363A"/>
<path d="M3.245 12.11C2.44567 12.11 1.782 11.912 1.254 11.516C0.726 11.12 0.447333 10.5407 0.418 9.778C0.418 9.712 0.44 9.657 0.484 9.613C0.528 9.56167 0.586667 9.536 0.66 9.536H1.254C1.408 9.536 1.50333 9.62033 1.54 9.789C1.584 10.2583 1.76367 10.6067 2.079 10.834C2.39433 11.0613 2.79033 11.175 3.267 11.175C3.817 11.175 4.23867 10.9953 4.532 10.636C4.83267 10.2693 4.983 9.778 4.983 9.162V5.257H1.078C1.00467 5.257 0.942333 5.235 0.891 5.191C0.847 5.13967 0.825 5.07733 0.825 5.004V4.553C0.825 4.47967 0.847 4.421 0.891 4.377C0.942333 4.32567 1.00467 4.3 1.078 4.3H5.819C5.89967 4.3 5.962 4.32567 6.006 4.377C6.05733 4.421 6.083 4.48333 6.083 4.564V9.184C6.083 10.0787 5.83 10.79 5.324 11.318C4.82533 11.846 4.13233 12.11 3.245 12.11ZM9.22668 12C9.03601 12 8.92235 11.901 8.88568 11.703L7.46668 4.641C7.45935 4.60433 7.45568 4.564 7.45568 4.52C7.45568 4.46133 7.47768 4.41 7.52168 4.366C7.56568 4.322 7.61701 4.3 7.67568 4.3H8.24768C8.40168 4.3 8.48968 4.36233 8.51168 4.487L9.63368 10.163L10.8217 6.269C10.8877 6.093 11.005 6.005 11.1737 6.005H11.5807C11.676 6.005 11.7493 6.03067 11.8007 6.082C11.8593 6.13333 11.8997 6.19567 11.9217 6.269L13.1207 10.163L14.2317 4.487C14.2537 4.36233 14.3453 4.3 14.5067 4.3H15.0787C15.1373 4.3 15.1887 4.322 15.2327 4.366C15.2767 4.41 15.2987 4.46133 15.2987 4.52L15.2877 4.641L13.8687 11.703C13.8247 11.901 13.711 12 13.5277 12H13.0987C12.908 12 12.787 11.9083 12.7357 11.725L11.3717 7.534L10.0187 11.725C9.96001 11.9083 9.83901 12 9.65568 12H9.22668Z" fill="white"/>
</svg>
