<svg width="16" height="23" viewBox="0 0 16 23" fill="none" xmlns="http://www.w3.org/2000/svg">
<path d="M7.83633 22.0158C5.65633 22.0158 3.84633 21.4758 2.40633 20.3958C0.966331 19.3158 0.206331 17.7358 0.126331 15.6558C0.126331 15.4758 0.186331 15.3258 0.306331 15.2058C0.426331 15.0658 0.586331 14.9958 0.786331 14.9958H2.40633C2.82633 14.9958 3.08633 15.2258 3.18633 15.6858C3.30633 16.9658 3.79633 17.9158 4.65633 18.5358C5.51633 19.1558 6.59633 19.4658 7.89633 19.4658C9.39633 19.4658 10.5463 18.9758 11.3463 17.9958C12.1663 16.9958 12.5763 15.6558 12.5763 13.9758V3.32581H1.92633C1.72633 3.32581 1.55633 3.26581 1.41633 3.14581C1.29633 3.00581 1.23633 2.83581 1.23633 2.63581V1.40581C1.23633 1.20581 1.29633 1.04581 1.41633 0.925806C1.55633 0.785805 1.72633 0.715805 1.92633 0.715805H14.8563C15.0763 0.715805 15.2463 0.785805 15.3663 0.925806C15.5063 1.04581 15.5763 1.21581 15.5763 1.4358V14.0358C15.5763 16.4758 14.8863 18.4158 13.5063 19.8558C12.1463 21.2958 10.2563 22.0158 7.83633 22.0158Z" fill="white"/>
<path d="M0.62778 12.9652C0.461114 12.9652 0.319447 12.9152 0.20278 12.8152C0.10278 12.6985 0.0527802 12.5569 0.0527802 12.3902V10.5902C0.0527802 10.4235 0.10278 10.2902 0.20278 10.1902C0.319447 10.0735 0.461114 10.0152 0.62778 10.0152H2.42778C2.59445 10.0152 2.73611 10.0735 2.85278 10.1902C2.96945 10.2902 3.02778 10.4235 3.02778 10.5902V12.3902C3.02778 12.5569 2.96945 12.6985 2.85278 12.8152C2.73611 12.9152 2.59445 12.9652 2.42778 12.9652H0.62778Z" fill="white"/>
</svg>
